<svg xmlns="http://www.w3.org/2000/svg" viewBox="0 0 400 400">
  <defs>
    <linearGradient id="bg" x1="0%" y1="0%" x2="100%" y2="100%">
      <stop offset="0%" stop-color="#F59E0B"/>
      <stop offset="100%" stop-color="#92400E"/>
    </linearGradient>
    <linearGradient id="skin" x1="0%" y1="0%" x2="0%" y2="100%">
      <stop offset="0%" stop-color="#F1C27D"/>
      <stop offset="100%" stop-color="#D4A55A"/>
    </linearGradient>
  </defs>
  <rect width="400" height="400" fill="url(#bg)"/>
  <ellipse cx="200" cy="420" rx="130" ry="95" fill="white"/>
  <rect x="180" y="280" width="40" height="35" rx="4" fill="url(#skin)"/>
  <ellipse cx="200" cy="215" rx="64" ry="78" fill="url(#skin)"/>
  <!-- Hair - neat professional -->
  <ellipse cx="200" cy="165" rx="66" ry="40" fill="#1a1a1a"/>
  <rect x="138" y="155" width="124" height="28" rx="4" fill="#1a1a1a"/>
  <path d="M140 168 Q200 142 260 168" fill="#1a1a1a"/>
  <!-- Side part -->
  <rect x="175" y="145" width="2" height="25" fill="#333"/>
  <!-- Gray temples -->
  <rect x="138" y="170" width="10" height="25" rx="3" fill="#555"/>
  <rect x="252" y="170" width="10" height="25" rx="3" fill="#555"/>
  <!-- Eyes -->
  <ellipse cx="178" cy="218" rx="6.5" ry="5" fill="#1a1a1a"/>
  <ellipse cx="222" cy="218" rx="6.5" ry="5" fill="#1a1a1a"/>
  <!-- Glasses - wire frame -->
  <rect x="160" y="208" width="36" height="24" rx="12" fill="none" stroke="#8B7355" stroke-width="1.5"/>
  <rect x="204" y="208" width="36" height="24" rx="12" fill="none" stroke="#8B7355" stroke-width="1.5"/>
  <line x1="196" y1="218" x2="204" y2="218" stroke="#8B7355" stroke-width="1.5"/>
  <!-- Eyebrows -->
  <path d="M164 204 Q178 198 194 204" stroke="#1a1a1a" stroke-width="2" fill="none"/>
  <path d="M206 204 Q222 198 236 204" stroke="#1a1a1a" stroke-width="2" fill="none"/>
  <!-- Nose -->
  <ellipse cx="200" cy="237" rx="5" ry="3" fill="#C49545" opacity="0.4"/>
  <!-- Kind smile -->
  <path d="M188 252 Q200 260 212 252" stroke="#C49545" stroke-width="2" fill="none" stroke-linecap="round"/>
  <!-- Lab coat -->
  <path d="M155 305 L185 293 L200 310 L215 293 L245 305" fill="white" stroke="#eee" stroke-width="1"/>
  <!-- DNA helix accent -->
  <path d="M345 330 Q355 345 345 360 Q335 375 345 390" stroke="white" stroke-width="2.5" fill="none" opacity="0.12"/>
  <path d="M355 330 Q345 345 355 360 Q365 375 355 390" stroke="white" stroke-width="2.5" fill="none" opacity="0.12"/>
</svg>